<?xml version="1.0" encoding="utf-8"?>
<svg xmlns="http://www.w3.org/2000/svg" xmlns:xlink="http://www.w3.org/1999/xlink" aria-hidden="true" role="img" class="iconify iconify--logos" width="300" height="300" preserveAspectRatio="xMidYMid meet" viewBox="0 0 300 300">
  <g>
    <g>
      <path fill="#E6E7E8" d="M292.6,168.8c0,63.8-51.7,115.5-115.5,115.5S61.5,232.6,61.5,168.8C61.5,105,113.2,53.3,177,53.3
        S292.6,105,292.6,168.8z"/>
      <path fill="#3C2415" d="M177,290.6c-67.1,0-121.7-54.6-121.7-121.7c0-67.1,54.6-121.7,121.7-121.7
        c67.1,0,121.7,54.6,121.7,121.7C298.8,236,244.2,290.6,177,290.6z M177,59.5c-60.3,0-109.3,49-109.3,109.3
        c0,60.3,49,109.3,109.3,109.3c60.3,0,109.3-49,109.3-109.3C286.3,108.6,237.3,59.5,177,59.5z"/>
    </g>
    <g>
      <path fill="#E33D2E" d="M292.6,168.8h-231C61.5,105,113.2,53.3,177,53.3S292.6,105,292.6,168.8z"/>
      <path fill="#3C2415" d="M292.6,175.1h-231c-3.4,0-6.2-2.8-6.2-6.2c0-67.1,54.6-121.7,121.7-121.7c67.1,0,121.7,54.6,121.7,121.7
        C298.8,172.3,296,175.1,292.6,175.1z M67.9,162.6h218.3C282.9,105.2,235.2,59.5,177,59.5S71.1,105.2,67.9,162.6z"/>
    </g>
    <g>
      <path fill="#FFFFFF" d="M208.6,168.8c0,17.4-14.1,31.6-31.6,31.6s-31.6-14.1-31.6-31.6c0-17.5,14.1-31.6,31.6-31.6
        S208.6,151.4,208.6,168.8z"/>
      <path fill="#3C2415" d="M177,206.6c-20.9,0-37.8-17-37.8-37.8c0-20.8,17-37.8,37.8-37.8c20.8,0,37.8,17,37.8,37.8
        C214.8,189.7,197.9,206.6,177,206.6z M177,143.5c-14,0-25.4,11.4-25.4,25.4c0,14,11.4,25.4,25.4,25.4c14,0,25.4-11.4,25.4-25.4
        C202.4,154.8,191,143.5,177,143.5z"/>
    </g>
  </g>
</svg>